<mxfile host="Electron" agent="Mozilla/5.0 (Windows NT 10.0; Win64; x64) AppleWebKit/537.36 (KHTML, like Gecko) draw.io/24.7.8 Chrome/128.0.6613.36 Electron/32.0.1 Safari/537.36" version="24.7.8">
  <diagram id="d-dk45kshJez7QyFLIaU" name="Page-1">
    <mxGraphModel dx="1434" dy="836" grid="1" gridSize="10" guides="1" tooltips="1" connect="1" arrows="1" fold="1" page="1" pageScale="1" pageWidth="1169" pageHeight="827" math="0" shadow="0">
      <root>
        <mxCell id="0" />
        <mxCell id="1" parent="0" />
        <mxCell id="Q7E9GpuZRZKX_aVkgj14-14" value="licensetexts" style="shape=umlFrame;whiteSpace=wrap;html=1;strokeWidth=3;width=80;height=30;fillColor=#D5E8D4" parent="1" vertex="1">
          <mxGeometry x="350.5" y="730" width="799.5" height="220" as="geometry" />
        </mxCell>
        <mxCell id="g61Bc657mv9JkBtAd2AT-109" value="ruleengine" style="shape=umlFrame;whiteSpace=wrap;html=1;fillColor=#D5E8D4;opacity=60;strokeWidth=3;" parent="1" vertex="1">
          <mxGeometry x="550" y="250" width="190" height="440" as="geometry" />
        </mxCell>
        <mxCell id="g61Bc657mv9JkBtAd2AT-108" value="reader" style="shape=umlFrame;whiteSpace=wrap;html=1;fillColor=#D5E8D4;opacity=60;strokeWidth=3;" parent="1" vertex="1">
          <mxGeometry x="310" y="250" width="210" height="440" as="geometry" />
        </mxCell>
        <mxCell id="g61Bc657mv9JkBtAd2AT-72" style="edgeStyle=orthogonalEdgeStyle;rounded=0;orthogonalLoop=1;jettySize=auto;html=1;" parent="1" source="g61Bc657mv9JkBtAd2AT-1" target="g61Bc657mv9JkBtAd2AT-19" edge="1">
          <mxGeometry relative="1" as="geometry" />
        </mxCell>
        <mxCell id="g61Bc657mv9JkBtAd2AT-74" style="edgeStyle=orthogonalEdgeStyle;rounded=0;orthogonalLoop=1;jettySize=auto;html=1;" parent="1" source="g61Bc657mv9JkBtAd2AT-1" target="g61Bc657mv9JkBtAd2AT-9" edge="1">
          <mxGeometry relative="1" as="geometry">
            <Array as="points">
              <mxPoint x="760" y="38" />
            </Array>
          </mxGeometry>
        </mxCell>
        <mxCell id="g61Bc657mv9JkBtAd2AT-75" style="edgeStyle=orthogonalEdgeStyle;rounded=0;orthogonalLoop=1;jettySize=auto;html=1;exitX=0.5;exitY=1;exitDx=0;exitDy=0;entryX=0.5;entryY=0;entryDx=0;entryDy=0;" parent="1" source="g61Bc657mv9JkBtAd2AT-1" target="g61Bc657mv9JkBtAd2AT-54" edge="1">
          <mxGeometry relative="1" as="geometry">
            <Array as="points">
              <mxPoint x="660" y="84" />
              <mxPoint x="660" y="240" />
              <mxPoint x="883" y="240" />
            </Array>
          </mxGeometry>
        </mxCell>
        <mxCell id="g61Bc657mv9JkBtAd2AT-76" style="edgeStyle=orthogonalEdgeStyle;rounded=0;orthogonalLoop=1;jettySize=auto;html=1;exitX=0.5;exitY=1;exitDx=0;exitDy=0;entryX=0.5;entryY=0;entryDx=0;entryDy=0;" parent="1" source="g61Bc657mv9JkBtAd2AT-1" target="g61Bc657mv9JkBtAd2AT-38" edge="1">
          <mxGeometry relative="1" as="geometry">
            <Array as="points">
              <mxPoint x="651" y="84" />
            </Array>
          </mxGeometry>
        </mxCell>
        <mxCell id="g61Bc657mv9JkBtAd2AT-78" style="edgeStyle=orthogonalEdgeStyle;rounded=0;orthogonalLoop=1;jettySize=auto;html=1;exitX=0;exitY=0.5;exitDx=0;exitDy=0;entryX=0.5;entryY=0;entryDx=0;entryDy=0;" parent="1" source="g61Bc657mv9JkBtAd2AT-1" target="g61Bc657mv9JkBtAd2AT-5" edge="1">
          <mxGeometry relative="1" as="geometry">
            <Array as="points">
              <mxPoint x="90" y="38" />
            </Array>
          </mxGeometry>
        </mxCell>
        <mxCell id="g61Bc657mv9JkBtAd2AT-79" style="edgeStyle=orthogonalEdgeStyle;rounded=0;orthogonalLoop=1;jettySize=auto;html=1;exitX=0;exitY=0.5;exitDx=0;exitDy=0;" parent="1" source="g61Bc657mv9JkBtAd2AT-1" target="g61Bc657mv9JkBtAd2AT-21" edge="1">
          <mxGeometry relative="1" as="geometry" />
        </mxCell>
        <mxCell id="g61Bc657mv9JkBtAd2AT-80" style="edgeStyle=orthogonalEdgeStyle;rounded=0;orthogonalLoop=1;jettySize=auto;html=1;exitX=0;exitY=0.5;exitDx=0;exitDy=0;entryX=0.5;entryY=0;entryDx=0;entryDy=0;" parent="1" source="g61Bc657mv9JkBtAd2AT-1" target="g61Bc657mv9JkBtAd2AT-3" edge="1">
          <mxGeometry relative="1" as="geometry" />
        </mxCell>
        <mxCell id="g61Bc657mv9JkBtAd2AT-81" style="edgeStyle=orthogonalEdgeStyle;rounded=0;orthogonalLoop=1;jettySize=auto;html=1;exitX=0.5;exitY=1;exitDx=0;exitDy=0;entryX=0.5;entryY=0;entryDx=0;entryDy=0;" parent="1" source="g61Bc657mv9JkBtAd2AT-1" target="g61Bc657mv9JkBtAd2AT-26" edge="1">
          <mxGeometry relative="1" as="geometry">
            <Array as="points">
              <mxPoint x="640" y="84" />
              <mxPoint x="640" y="240" />
              <mxPoint x="421" y="240" />
            </Array>
          </mxGeometry>
        </mxCell>
        <mxCell id="g61Bc657mv9JkBtAd2AT-1" value="&lt;p style=&quot;margin: 0px ; margin-top: 6px ; text-align: center&quot;&gt;&lt;b&gt;Solicitor&lt;/b&gt;&lt;/p&gt;&lt;hr&gt;" style="align=left;overflow=fill;html=1;rotation=0;" parent="1" vertex="1">
          <mxGeometry x="580" y="7.5" width="140" height="60" as="geometry" />
        </mxCell>
        <mxCell id="g61Bc657mv9JkBtAd2AT-2" value="" style="shape=component;jettyWidth=8;jettyHeight=4;" parent="g61Bc657mv9JkBtAd2AT-1" vertex="1">
          <mxGeometry x="1" width="20" height="20" relative="1" as="geometry">
            <mxPoint x="-24" y="4" as="offset" />
          </mxGeometry>
        </mxCell>
        <mxCell id="g61Bc657mv9JkBtAd2AT-3" value="&lt;p style=&quot;margin: 0px ; margin-top: 6px ; text-align: center&quot;&gt;&lt;b&gt;SolicitorSetup&lt;/b&gt;&lt;/p&gt;&lt;hr&gt;" style="align=left;overflow=fill;html=1;rotation=0;" parent="1" vertex="1">
          <mxGeometry x="470" y="88.5" width="140" height="60" as="geometry" />
        </mxCell>
        <mxCell id="g61Bc657mv9JkBtAd2AT-4" value="" style="shape=component;jettyWidth=8;jettyHeight=4;" parent="g61Bc657mv9JkBtAd2AT-3" vertex="1">
          <mxGeometry x="1" width="20" height="20" relative="1" as="geometry">
            <mxPoint x="-24" y="4" as="offset" />
          </mxGeometry>
        </mxCell>
        <mxCell id="g61Bc657mv9JkBtAd2AT-5" value="&lt;p style=&quot;margin: 0px ; margin-top: 6px ; text-align: center&quot;&gt;&lt;b&gt;SolicitorVersion&lt;/b&gt;&lt;/p&gt;&lt;hr&gt;" style="align=left;overflow=fill;html=1;rotation=0;" parent="1" vertex="1">
          <mxGeometry x="20" y="746.5" width="140" height="60" as="geometry" />
        </mxCell>
        <mxCell id="g61Bc657mv9JkBtAd2AT-6" value="" style="shape=component;jettyWidth=8;jettyHeight=4;" parent="g61Bc657mv9JkBtAd2AT-5" vertex="1">
          <mxGeometry x="1" width="20" height="20" relative="1" as="geometry">
            <mxPoint x="-24" y="4" as="offset" />
          </mxGeometry>
        </mxCell>
        <mxCell id="g61Bc657mv9JkBtAd2AT-7" value="&lt;p style=&quot;margin: 0px ; margin-top: 6px ; text-align: center&quot;&gt;&lt;b&gt;UrlInput&lt;/b&gt;&lt;/p&gt;&lt;p style=&quot;margin: 0px ; margin-top: 6px ; text-align: center&quot;&gt;&lt;b&gt;StreamFactory&lt;/b&gt;&lt;br&gt;&lt;/p&gt;&lt;hr&gt;" style="align=left;overflow=fill;html=1;rotation=0;" parent="1" vertex="1">
          <mxGeometry x="1013" y="171.5" width="137" height="60" as="geometry" />
        </mxCell>
        <mxCell id="g61Bc657mv9JkBtAd2AT-8" value="" style="shape=component;jettyWidth=8;jettyHeight=4;" parent="g61Bc657mv9JkBtAd2AT-7" vertex="1">
          <mxGeometry x="1" width="20" height="20" relative="1" as="geometry">
            <mxPoint x="-24" y="4" as="offset" />
          </mxGeometry>
        </mxCell>
        <mxCell id="y1jHL_44-HksRpUdbyhA-1" style="edgeStyle=orthogonalEdgeStyle;rounded=0;orthogonalLoop=1;jettySize=auto;html=1;exitX=0.5;exitY=1;exitDx=0;exitDy=0;entryX=1;entryY=0.75;entryDx=0;entryDy=0;" parent="1" source="g61Bc657mv9JkBtAd2AT-9" target="g61Bc657mv9JkBtAd2AT-21" edge="1">
          <mxGeometry relative="1" as="geometry">
            <Array as="points">
              <mxPoint x="760" y="200" />
              <mxPoint x="450" y="200" />
              <mxPoint x="450" y="134" />
            </Array>
          </mxGeometry>
        </mxCell>
        <mxCell id="g61Bc657mv9JkBtAd2AT-9" value="&lt;p style=&quot;margin: 0px ; margin-top: 6px ; text-align: center&quot;&gt;&lt;b&gt;ResourceTo&lt;/b&gt;&lt;/p&gt;&lt;p style=&quot;margin: 0px ; margin-top: 6px ; text-align: center&quot;&gt;&lt;b&gt;FileCopier&lt;/b&gt;&lt;br&gt;&lt;/p&gt;&lt;hr&gt;" style="align=left;overflow=fill;html=1;rotation=0;" parent="1" vertex="1">
          <mxGeometry x="690" y="100" width="140" height="60" as="geometry" />
        </mxCell>
        <mxCell id="g61Bc657mv9JkBtAd2AT-10" value="" style="shape=component;jettyWidth=8;jettyHeight=4;" parent="g61Bc657mv9JkBtAd2AT-9" vertex="1">
          <mxGeometry x="1" width="20" height="20" relative="1" as="geometry">
            <mxPoint x="-24" y="4" as="offset" />
          </mxGeometry>
        </mxCell>
        <mxCell id="g61Bc657mv9JkBtAd2AT-88" style="edgeStyle=orthogonalEdgeStyle;rounded=0;orthogonalLoop=1;jettySize=auto;html=1;exitX=1;exitY=0.5;exitDx=0;exitDy=0;entryX=0;entryY=0.5;entryDx=0;entryDy=0;" parent="1" source="g61Bc657mv9JkBtAd2AT-11" target="g61Bc657mv9JkBtAd2AT-15" edge="1">
          <mxGeometry relative="1" as="geometry" />
        </mxCell>
        <mxCell id="g61Bc657mv9JkBtAd2AT-11" value="&lt;p style=&quot;margin: 0px ; margin-top: 6px ; text-align: center&quot;&gt;&lt;b&gt;ClassPath&lt;/b&gt;&lt;/p&gt;&lt;p style=&quot;margin: 0px ; margin-top: 6px ; text-align: center&quot;&gt;&lt;b&gt;WebContentProvider&lt;/b&gt;&lt;br&gt;&lt;/p&gt;&lt;hr&gt;" style="align=left;overflow=fill;html=1;rotation=0;" parent="1" vertex="1">
          <mxGeometry x="606" y="746.5" width="140" height="60" as="geometry" />
        </mxCell>
        <mxCell id="g61Bc657mv9JkBtAd2AT-12" value="" style="shape=component;jettyWidth=8;jettyHeight=4;" parent="g61Bc657mv9JkBtAd2AT-11" vertex="1">
          <mxGeometry x="1" width="20" height="20" relative="1" as="geometry">
            <mxPoint x="-24" y="4" as="offset" />
          </mxGeometry>
        </mxCell>
        <mxCell id="g61Bc657mv9JkBtAd2AT-13" value="&lt;p style=&quot;margin: 0px ; margin-top: 6px ; text-align: center&quot;&gt;&lt;b&gt;DirectUrl&lt;/b&gt;&lt;/p&gt;&lt;p style=&quot;margin: 0px ; margin-top: 6px ; text-align: center&quot;&gt;&lt;b&gt;WebContentProvider&lt;/b&gt;&lt;br&gt;&lt;/p&gt;&lt;hr&gt;" style="align=left;overflow=fill;html=1;rotation=0;" parent="1" vertex="1">
          <mxGeometry x="948" y="746.5" width="140" height="60" as="geometry" />
        </mxCell>
        <mxCell id="g61Bc657mv9JkBtAd2AT-14" value="" style="shape=component;jettyWidth=8;jettyHeight=4;" parent="g61Bc657mv9JkBtAd2AT-13" vertex="1">
          <mxGeometry x="1" width="20" height="20" relative="1" as="geometry">
            <mxPoint x="-24" y="4" as="offset" />
          </mxGeometry>
        </mxCell>
        <mxCell id="g61Bc657mv9JkBtAd2AT-89" style="edgeStyle=orthogonalEdgeStyle;rounded=0;orthogonalLoop=1;jettySize=auto;html=1;exitX=1;exitY=0.5;exitDx=0;exitDy=0;entryX=0;entryY=0.5;entryDx=0;entryDy=0;" parent="1" source="g61Bc657mv9JkBtAd2AT-15" target="g61Bc657mv9JkBtAd2AT-13" edge="1">
          <mxGeometry relative="1" as="geometry" />
        </mxCell>
        <mxCell id="g61Bc657mv9JkBtAd2AT-15" value="&lt;p style=&quot;margin: 0px ; margin-top: 6px ; text-align: center&quot;&gt;&lt;b&gt;FileSystemCaching&lt;/b&gt;&lt;/p&gt;&lt;p style=&quot;margin: 0px ; margin-top: 6px ; text-align: center&quot;&gt;&lt;b&gt;WebContentProvider&lt;/b&gt;&lt;br&gt;&lt;/p&gt;&lt;hr&gt;" style="align=left;overflow=fill;html=1;rotation=0;" parent="1" vertex="1">
          <mxGeometry x="777" y="746.5" width="140" height="60" as="geometry" />
        </mxCell>
        <mxCell id="g61Bc657mv9JkBtAd2AT-16" value="" style="shape=component;jettyWidth=8;jettyHeight=4;" parent="g61Bc657mv9JkBtAd2AT-15" vertex="1">
          <mxGeometry x="1" width="20" height="20" relative="1" as="geometry">
            <mxPoint x="-24" y="4" as="offset" />
          </mxGeometry>
        </mxCell>
        <mxCell id="g61Bc657mv9JkBtAd2AT-87" style="edgeStyle=orthogonalEdgeStyle;rounded=0;orthogonalLoop=1;jettySize=auto;html=1;exitX=1;exitY=0.5;exitDx=0;exitDy=0;entryX=0;entryY=0.5;entryDx=0;entryDy=0;" parent="1" source="g61Bc657mv9JkBtAd2AT-17" target="g61Bc657mv9JkBtAd2AT-11" edge="1">
          <mxGeometry relative="1" as="geometry" />
        </mxCell>
        <mxCell id="g61Bc657mv9JkBtAd2AT-17" value="&lt;p style=&quot;margin: 0px ; margin-top: 6px ; text-align: center&quot;&gt;&lt;b&gt;InMemoryMap&lt;/b&gt;&lt;/p&gt;&lt;p style=&quot;margin: 0px ; margin-top: 6px ; text-align: center&quot;&gt;&lt;b&gt;WebContentProvider&lt;/b&gt;&lt;br&gt;&lt;/p&gt;&lt;hr&gt;" style="align=left;overflow=fill;html=1;rotation=0;" parent="1" vertex="1">
          <mxGeometry x="436" y="746.5" width="140" height="60" as="geometry" />
        </mxCell>
        <mxCell id="g61Bc657mv9JkBtAd2AT-18" value="" style="shape=component;jettyWidth=8;jettyHeight=4;" parent="g61Bc657mv9JkBtAd2AT-17" vertex="1">
          <mxGeometry x="1" width="20" height="20" relative="1" as="geometry">
            <mxPoint x="-24" y="4" as="offset" />
          </mxGeometry>
        </mxCell>
        <mxCell id="g61Bc657mv9JkBtAd2AT-71" style="edgeStyle=orthogonalEdgeStyle;rounded=0;orthogonalLoop=1;jettySize=auto;html=1;exitX=0.5;exitY=1;exitDx=0;exitDy=0;entryX=0.25;entryY=0;entryDx=0;entryDy=0;" parent="1" source="g61Bc657mv9JkBtAd2AT-19" target="g61Bc657mv9JkBtAd2AT-24" edge="1">
          <mxGeometry relative="1" as="geometry">
            <Array as="points">
              <mxPoint x="190" y="240" />
              <mxPoint x="228" y="240" />
            </Array>
          </mxGeometry>
        </mxCell>
        <mxCell id="g61Bc657mv9JkBtAd2AT-19" value="&lt;p style=&quot;margin: 0px ; margin-top: 6px ; text-align: center&quot;&gt;&lt;b&gt;ModelImporterExporter&lt;/b&gt;&lt;/p&gt;&lt;hr&gt;" style="align=left;overflow=fill;html=1;rotation=0;" parent="1" vertex="1">
          <mxGeometry x="120" y="88.5" width="140" height="60" as="geometry" />
        </mxCell>
        <mxCell id="g61Bc657mv9JkBtAd2AT-20" value="" style="shape=component;jettyWidth=8;jettyHeight=4;" parent="g61Bc657mv9JkBtAd2AT-19" vertex="1">
          <mxGeometry x="1" width="20" height="20" relative="1" as="geometry">
            <mxPoint x="-24" y="4" as="offset" />
          </mxGeometry>
        </mxCell>
        <mxCell id="g61Bc657mv9JkBtAd2AT-90" style="edgeStyle=orthogonalEdgeStyle;rounded=0;orthogonalLoop=1;jettySize=auto;html=1;exitX=0.5;exitY=1;exitDx=0;exitDy=0;entryX=0.5;entryY=0;entryDx=0;entryDy=0;" parent="1" source="g61Bc657mv9JkBtAd2AT-21" target="g61Bc657mv9JkBtAd2AT-24" edge="1">
          <mxGeometry relative="1" as="geometry">
            <Array as="points">
              <mxPoint x="353" y="160" />
              <mxPoint x="263" y="160" />
            </Array>
          </mxGeometry>
        </mxCell>
        <mxCell id="g61Bc657mv9JkBtAd2AT-102" style="edgeStyle=orthogonalEdgeStyle;rounded=0;orthogonalLoop=1;jettySize=auto;html=1;exitX=1;exitY=0.5;exitDx=0;exitDy=0;entryX=0;entryY=0.5;entryDx=0;entryDy=0;" parent="1" source="g61Bc657mv9JkBtAd2AT-21" target="g61Bc657mv9JkBtAd2AT-3" edge="1">
          <mxGeometry relative="1" as="geometry" />
        </mxCell>
        <mxCell id="E12I5hy7IiAWHUOPnKXT-3" style="edgeStyle=orthogonalEdgeStyle;rounded=0;orthogonalLoop=1;jettySize=auto;html=1;exitX=0.5;exitY=1;exitDx=0;exitDy=0;entryX=0.5;entryY=0;entryDx=0;entryDy=0;" parent="1" source="g61Bc657mv9JkBtAd2AT-21" target="E12I5hy7IiAWHUOPnKXT-1" edge="1">
          <mxGeometry relative="1" as="geometry">
            <Array as="points">
              <mxPoint x="353" y="170" />
              <mxPoint x="353" y="170" />
            </Array>
          </mxGeometry>
        </mxCell>
        <mxCell id="g61Bc657mv9JkBtAd2AT-21" value="&lt;p style=&quot;margin: 0px ; margin-top: 6px ; text-align: center&quot;&gt;&lt;b&gt;ConfigFactory&lt;/b&gt;&lt;/p&gt;&lt;hr&gt;" style="align=left;overflow=fill;html=1;rotation=0;" parent="1" vertex="1">
          <mxGeometry x="282.5" y="88.5" width="140" height="60" as="geometry" />
        </mxCell>
        <mxCell id="g61Bc657mv9JkBtAd2AT-22" value="" style="shape=component;jettyWidth=8;jettyHeight=4;" parent="g61Bc657mv9JkBtAd2AT-21" vertex="1">
          <mxGeometry x="1" width="20" height="20" relative="1" as="geometry">
            <mxPoint x="-24" y="4" as="offset" />
          </mxGeometry>
        </mxCell>
        <mxCell id="g61Bc657mv9JkBtAd2AT-86" style="edgeStyle=orthogonalEdgeStyle;rounded=0;orthogonalLoop=1;jettySize=auto;html=1;exitX=1;exitY=0.5;exitDx=0;exitDy=0;entryX=0;entryY=0.5;entryDx=0;entryDy=0;" parent="1" source="g61Bc657mv9JkBtAd2AT-24" target="g61Bc657mv9JkBtAd2AT-17" edge="1">
          <mxGeometry relative="1" as="geometry" />
        </mxCell>
        <mxCell id="g61Bc657mv9JkBtAd2AT-101" style="edgeStyle=orthogonalEdgeStyle;rounded=0;orthogonalLoop=1;jettySize=auto;html=1;exitX=0;exitY=0.5;exitDx=0;exitDy=0;entryX=1;entryY=0.5;entryDx=0;entryDy=0;" parent="1" source="g61Bc657mv9JkBtAd2AT-24" target="g61Bc657mv9JkBtAd2AT-5" edge="1">
          <mxGeometry relative="1" as="geometry" />
        </mxCell>
        <mxCell id="g61Bc657mv9JkBtAd2AT-24" value="&lt;p style=&quot;margin: 0px ; margin-top: 6px ; text-align: center&quot;&gt;&lt;b&gt;ModelFactory&lt;/b&gt;&lt;/p&gt;&lt;hr&gt;" style="align=left;overflow=fill;html=1;rotation=0;" parent="1" vertex="1">
          <mxGeometry x="192.5" y="746.5" width="140" height="60" as="geometry" />
        </mxCell>
        <mxCell id="g61Bc657mv9JkBtAd2AT-25" value="" style="shape=component;jettyWidth=8;jettyHeight=4;" parent="g61Bc657mv9JkBtAd2AT-24" vertex="1">
          <mxGeometry x="1" width="20" height="20" relative="1" as="geometry">
            <mxPoint x="-24" y="4" as="offset" />
          </mxGeometry>
        </mxCell>
        <mxCell id="g61Bc657mv9JkBtAd2AT-57" style="edgeStyle=orthogonalEdgeStyle;rounded=0;orthogonalLoop=1;jettySize=auto;html=1;exitX=0;exitY=0.5;exitDx=0;exitDy=0;entryX=0;entryY=0.5;entryDx=0;entryDy=0;" parent="1" source="g61Bc657mv9JkBtAd2AT-26" target="g61Bc657mv9JkBtAd2AT-28" edge="1">
          <mxGeometry relative="1" as="geometry" />
        </mxCell>
        <mxCell id="g61Bc657mv9JkBtAd2AT-59" style="edgeStyle=orthogonalEdgeStyle;rounded=0;orthogonalLoop=1;jettySize=auto;html=1;exitX=0;exitY=0.5;exitDx=0;exitDy=0;entryX=0;entryY=0.5;entryDx=0;entryDy=0;" parent="1" source="g61Bc657mv9JkBtAd2AT-26" target="g61Bc657mv9JkBtAd2AT-30" edge="1">
          <mxGeometry relative="1" as="geometry" />
        </mxCell>
        <mxCell id="g61Bc657mv9JkBtAd2AT-60" style="edgeStyle=orthogonalEdgeStyle;rounded=0;orthogonalLoop=1;jettySize=auto;html=1;exitX=0;exitY=0.5;exitDx=0;exitDy=0;entryX=0;entryY=0.5;entryDx=0;entryDy=0;" parent="1" source="g61Bc657mv9JkBtAd2AT-26" target="g61Bc657mv9JkBtAd2AT-32" edge="1">
          <mxGeometry relative="1" as="geometry" />
        </mxCell>
        <mxCell id="g61Bc657mv9JkBtAd2AT-61" style="edgeStyle=orthogonalEdgeStyle;rounded=0;orthogonalLoop=1;jettySize=auto;html=1;exitX=0;exitY=0.5;exitDx=0;exitDy=0;entryX=0;entryY=0.5;entryDx=0;entryDy=0;" parent="1" source="g61Bc657mv9JkBtAd2AT-26" target="g61Bc657mv9JkBtAd2AT-34" edge="1">
          <mxGeometry relative="1" as="geometry" />
        </mxCell>
        <mxCell id="g61Bc657mv9JkBtAd2AT-26" value="&lt;p style=&quot;margin: 0px ; margin-top: 6px ; text-align: center&quot;&gt;&lt;b&gt;ReaderFactory&lt;/b&gt;&lt;/p&gt;&lt;hr&gt;" style="align=left;overflow=fill;html=1;rotation=0;" parent="1" vertex="1">
          <mxGeometry x="350.5" y="293.5" width="140" height="60" as="geometry" />
        </mxCell>
        <mxCell id="g61Bc657mv9JkBtAd2AT-27" value="" style="shape=component;jettyWidth=8;jettyHeight=4;" parent="g61Bc657mv9JkBtAd2AT-26" vertex="1">
          <mxGeometry x="1" width="20" height="20" relative="1" as="geometry">
            <mxPoint x="-24" y="4" as="offset" />
          </mxGeometry>
        </mxCell>
        <mxCell id="g61Bc657mv9JkBtAd2AT-95" style="edgeStyle=orthogonalEdgeStyle;rounded=0;orthogonalLoop=1;jettySize=auto;html=1;exitX=1;exitY=0.5;exitDx=0;exitDy=0;entryX=0.75;entryY=0;entryDx=0;entryDy=0;" parent="1" source="g61Bc657mv9JkBtAd2AT-28" target="g61Bc657mv9JkBtAd2AT-24" edge="1">
          <mxGeometry relative="1" as="geometry">
            <Array as="points">
              <mxPoint x="510" y="404" />
              <mxPoint x="510" y="714" />
              <mxPoint x="298" y="714" />
            </Array>
          </mxGeometry>
        </mxCell>
        <mxCell id="g61Bc657mv9JkBtAd2AT-28" value="&lt;p style=&quot;margin: 0px ; margin-top: 6px ; text-align: center&quot;&gt;&lt;b&gt;CsvReader&lt;/b&gt;&lt;/p&gt;&lt;hr&gt;" style="align=left;overflow=fill;html=1;rotation=0;" parent="1" vertex="1">
          <mxGeometry x="350.5" y="373.5" width="140" height="60" as="geometry" />
        </mxCell>
        <mxCell id="g61Bc657mv9JkBtAd2AT-29" value="" style="shape=component;jettyWidth=8;jettyHeight=4;" parent="g61Bc657mv9JkBtAd2AT-28" vertex="1">
          <mxGeometry x="1" width="20" height="20" relative="1" as="geometry">
            <mxPoint x="-24" y="4" as="offset" />
          </mxGeometry>
        </mxCell>
        <mxCell id="g61Bc657mv9JkBtAd2AT-96" style="edgeStyle=orthogonalEdgeStyle;rounded=0;orthogonalLoop=1;jettySize=auto;html=1;exitX=1;exitY=0.5;exitDx=0;exitDy=0;entryX=0.75;entryY=0;entryDx=0;entryDy=0;" parent="1" source="g61Bc657mv9JkBtAd2AT-30" target="g61Bc657mv9JkBtAd2AT-24" edge="1">
          <mxGeometry relative="1" as="geometry">
            <Array as="points">
              <mxPoint x="510" y="484" />
              <mxPoint x="510" y="714" />
              <mxPoint x="298" y="714" />
            </Array>
          </mxGeometry>
        </mxCell>
        <mxCell id="g61Bc657mv9JkBtAd2AT-30" value="&lt;p style=&quot;margin: 0px ; margin-top: 6px ; text-align: center&quot;&gt;&lt;b&gt;GradleReader&lt;/b&gt;&lt;/p&gt;&lt;hr&gt;" style="align=left;overflow=fill;html=1;rotation=0;" parent="1" vertex="1">
          <mxGeometry x="350.5" y="453.5" width="140" height="60" as="geometry" />
        </mxCell>
        <mxCell id="g61Bc657mv9JkBtAd2AT-31" value="" style="shape=component;jettyWidth=8;jettyHeight=4;" parent="g61Bc657mv9JkBtAd2AT-30" vertex="1">
          <mxGeometry x="1" width="20" height="20" relative="1" as="geometry">
            <mxPoint x="-24" y="4" as="offset" />
          </mxGeometry>
        </mxCell>
        <mxCell id="g61Bc657mv9JkBtAd2AT-97" style="edgeStyle=orthogonalEdgeStyle;rounded=0;orthogonalLoop=1;jettySize=auto;html=1;exitX=1;exitY=0.5;exitDx=0;exitDy=0;entryX=0.75;entryY=0;entryDx=0;entryDy=0;" parent="1" source="g61Bc657mv9JkBtAd2AT-32" target="g61Bc657mv9JkBtAd2AT-24" edge="1">
          <mxGeometry relative="1" as="geometry">
            <Array as="points">
              <mxPoint x="510" y="564" />
              <mxPoint x="510" y="714" />
              <mxPoint x="298" y="714" />
            </Array>
          </mxGeometry>
        </mxCell>
        <mxCell id="g61Bc657mv9JkBtAd2AT-32" value="&lt;p style=&quot;margin: 0px ; margin-top: 6px ; text-align: center&quot;&gt;&lt;b&gt;MavenReader&lt;/b&gt;&lt;/p&gt;&lt;hr&gt;" style="align=left;overflow=fill;html=1;rotation=0;" parent="1" vertex="1">
          <mxGeometry x="350.5" y="533.5" width="140" height="60" as="geometry" />
        </mxCell>
        <mxCell id="g61Bc657mv9JkBtAd2AT-33" value="" style="shape=component;jettyWidth=8;jettyHeight=4;" parent="g61Bc657mv9JkBtAd2AT-32" vertex="1">
          <mxGeometry x="1" width="20" height="20" relative="1" as="geometry">
            <mxPoint x="-24" y="4" as="offset" />
          </mxGeometry>
        </mxCell>
        <mxCell id="g61Bc657mv9JkBtAd2AT-98" style="edgeStyle=orthogonalEdgeStyle;rounded=0;orthogonalLoop=1;jettySize=auto;html=1;exitX=1;exitY=0.5;exitDx=0;exitDy=0;entryX=0.75;entryY=0;entryDx=0;entryDy=0;" parent="1" source="g61Bc657mv9JkBtAd2AT-34" target="g61Bc657mv9JkBtAd2AT-24" edge="1">
          <mxGeometry relative="1" as="geometry">
            <Array as="points">
              <mxPoint x="510" y="644" />
              <mxPoint x="510" y="714" />
              <mxPoint x="298" y="714" />
            </Array>
          </mxGeometry>
        </mxCell>
        <mxCell id="g61Bc657mv9JkBtAd2AT-34" value="&lt;p style=&quot;margin: 0px ; margin-top: 6px ; text-align: center&quot;&gt;&lt;b&gt;NpmReader&lt;/b&gt;&lt;/p&gt;&lt;hr&gt;" style="align=left;overflow=fill;html=1;rotation=0;" parent="1" vertex="1">
          <mxGeometry x="350.5" y="613.5" width="140" height="60" as="geometry" />
        </mxCell>
        <mxCell id="g61Bc657mv9JkBtAd2AT-35" value="" style="shape=component;jettyWidth=8;jettyHeight=4;" parent="g61Bc657mv9JkBtAd2AT-34" vertex="1">
          <mxGeometry x="1" width="20" height="20" relative="1" as="geometry">
            <mxPoint x="-24" y="4" as="offset" />
          </mxGeometry>
        </mxCell>
        <mxCell id="g61Bc657mv9JkBtAd2AT-36" value="&lt;p style=&quot;margin: 0px ; margin-top: 6px ; text-align: center&quot;&gt;&lt;b&gt;DroolsDecision&lt;/b&gt;&lt;/p&gt;&lt;p style=&quot;margin: 0px ; margin-top: 6px ; text-align: center&quot;&gt;&lt;b&gt;TableReader&lt;/b&gt;&lt;/p&gt;&lt;hr&gt;" style="align=left;overflow=fill;html=1;rotation=0;" parent="1" vertex="1">
          <mxGeometry x="582.5" y="453.5" width="140" height="60" as="geometry" />
        </mxCell>
        <mxCell id="g61Bc657mv9JkBtAd2AT-37" value="" style="shape=component;jettyWidth=8;jettyHeight=4;" parent="g61Bc657mv9JkBtAd2AT-36" vertex="1">
          <mxGeometry x="1" width="20" height="20" relative="1" as="geometry">
            <mxPoint x="-24" y="4" as="offset" />
          </mxGeometry>
        </mxCell>
        <mxCell id="g61Bc657mv9JkBtAd2AT-70" style="edgeStyle=orthogonalEdgeStyle;rounded=0;orthogonalLoop=1;jettySize=auto;html=1;exitX=0.5;exitY=1;exitDx=0;exitDy=0;entryX=0.5;entryY=0;entryDx=0;entryDy=0;" parent="1" source="g61Bc657mv9JkBtAd2AT-38" target="g61Bc657mv9JkBtAd2AT-40" edge="1">
          <mxGeometry relative="1" as="geometry" />
        </mxCell>
        <mxCell id="g61Bc657mv9JkBtAd2AT-103" style="edgeStyle=orthogonalEdgeStyle;rounded=0;orthogonalLoop=1;jettySize=auto;html=1;exitX=0;exitY=0.5;exitDx=0;exitDy=0;entryX=0.5;entryY=1;entryDx=0;entryDy=0;" parent="1" source="g61Bc657mv9JkBtAd2AT-38" target="g61Bc657mv9JkBtAd2AT-3" edge="1">
          <mxGeometry relative="1" as="geometry" />
        </mxCell>
        <mxCell id="g61Bc657mv9JkBtAd2AT-38" value="&lt;p style=&quot;margin: 0px ; margin-top: 6px ; text-align: center&quot;&gt;&lt;b&gt;RuleEngine&lt;/b&gt;&lt;/p&gt;&lt;hr&gt;" style="align=left;overflow=fill;html=1;rotation=0;" parent="1" vertex="1">
          <mxGeometry x="580.5" y="293.5" width="140" height="60" as="geometry" />
        </mxCell>
        <mxCell id="g61Bc657mv9JkBtAd2AT-39" value="" style="shape=component;jettyWidth=8;jettyHeight=4;" parent="g61Bc657mv9JkBtAd2AT-38" vertex="1">
          <mxGeometry x="1" width="20" height="20" relative="1" as="geometry">
            <mxPoint x="-24" y="4" as="offset" />
          </mxGeometry>
        </mxCell>
        <mxCell id="g61Bc657mv9JkBtAd2AT-69" style="edgeStyle=orthogonalEdgeStyle;rounded=0;orthogonalLoop=1;jettySize=auto;html=1;exitX=0;exitY=0.5;exitDx=0;exitDy=0;entryX=0;entryY=0.5;entryDx=0;entryDy=0;" parent="1" source="g61Bc657mv9JkBtAd2AT-40" target="g61Bc657mv9JkBtAd2AT-36" edge="1">
          <mxGeometry relative="1" as="geometry" />
        </mxCell>
        <mxCell id="g61Bc657mv9JkBtAd2AT-40" value="&lt;p style=&quot;margin: 0px ; margin-top: 6px ; text-align: center&quot;&gt;&lt;b&gt;DroolsRules&lt;/b&gt;&lt;/p&gt;&lt;p style=&quot;margin: 0px ; margin-top: 6px ; text-align: center&quot;&gt;&lt;b&gt;ReaderFactory&lt;/b&gt;&lt;/p&gt;&lt;hr&gt;" style="align=left;overflow=fill;html=1;rotation=0;" parent="1" vertex="1">
          <mxGeometry x="580.5" y="373.5" width="140" height="60" as="geometry" />
        </mxCell>
        <mxCell id="g61Bc657mv9JkBtAd2AT-41" value="" style="shape=component;jettyWidth=8;jettyHeight=4;" parent="g61Bc657mv9JkBtAd2AT-40" vertex="1">
          <mxGeometry x="1" width="20" height="20" relative="1" as="geometry">
            <mxPoint x="-24" y="4" as="offset" />
          </mxGeometry>
        </mxCell>
        <mxCell id="g61Bc657mv9JkBtAd2AT-99" style="edgeStyle=orthogonalEdgeStyle;rounded=0;orthogonalLoop=1;jettySize=auto;html=1;exitX=0.5;exitY=1;exitDx=0;exitDy=0;entryX=0.75;entryY=0;entryDx=0;entryDy=0;" parent="1" source="g61Bc657mv9JkBtAd2AT-42" target="g61Bc657mv9JkBtAd2AT-24" edge="1">
          <mxGeometry relative="1" as="geometry">
            <Array as="points">
              <mxPoint x="642.5" y="713.5" />
              <mxPoint x="297.5" y="713.5" />
            </Array>
          </mxGeometry>
        </mxCell>
        <mxCell id="g61Bc657mv9JkBtAd2AT-42" value="&lt;p style=&quot;margin: 0px ; margin-top: 6px ; text-align: center&quot;&gt;&lt;b&gt;ModelHelper&lt;/b&gt;&lt;/p&gt;&lt;br&gt;&lt;hr&gt;" style="align=left;overflow=fill;html=1;rotation=0;" parent="1" vertex="1">
          <mxGeometry x="584.5" y="530.5" width="140" height="60" as="geometry" />
        </mxCell>
        <mxCell id="g61Bc657mv9JkBtAd2AT-43" value="" style="shape=component;jettyWidth=8;jettyHeight=4;" parent="g61Bc657mv9JkBtAd2AT-42" vertex="1">
          <mxGeometry x="1" width="20" height="20" relative="1" as="geometry">
            <mxPoint x="-24" y="4" as="offset" />
          </mxGeometry>
        </mxCell>
        <mxCell id="g61Bc657mv9JkBtAd2AT-100" style="edgeStyle=orthogonalEdgeStyle;rounded=0;orthogonalLoop=1;jettySize=auto;html=1;exitX=0.5;exitY=1;exitDx=0;exitDy=0;entryX=0.75;entryY=0;entryDx=0;entryDy=0;" parent="1" source="g61Bc657mv9JkBtAd2AT-44" target="g61Bc657mv9JkBtAd2AT-24" edge="1">
          <mxGeometry relative="1" as="geometry">
            <Array as="points">
              <mxPoint x="1062.5" y="713.5" />
              <mxPoint x="297.5" y="713.5" />
            </Array>
          </mxGeometry>
        </mxCell>
        <mxCell id="g61Bc657mv9JkBtAd2AT-44" value="&lt;p style=&quot;margin: 0px ; margin-top: 6px ; text-align: center&quot;&gt;&lt;b&gt;ResultDatabase&lt;/b&gt;&lt;/p&gt;&lt;p style=&quot;margin: 0px ; margin-top: 6px ; text-align: center&quot;&gt;&lt;b&gt;Factory&lt;/b&gt;&lt;/p&gt;&lt;br&gt;&lt;hr&gt;" style="align=left;overflow=fill;html=1;rotation=0;" parent="1" vertex="1">
          <mxGeometry x="992.5" y="376.5" width="140" height="60" as="geometry" />
        </mxCell>
        <mxCell id="g61Bc657mv9JkBtAd2AT-45" value="" style="shape=component;jettyWidth=8;jettyHeight=4;" parent="g61Bc657mv9JkBtAd2AT-44" vertex="1">
          <mxGeometry x="1" width="20" height="20" relative="1" as="geometry">
            <mxPoint x="-24" y="4" as="offset" />
          </mxGeometry>
        </mxCell>
        <mxCell id="g61Bc657mv9JkBtAd2AT-64" style="edgeStyle=orthogonalEdgeStyle;rounded=0;orthogonalLoop=1;jettySize=auto;html=1;exitX=0;exitY=0.5;exitDx=0;exitDy=0;entryX=0;entryY=0.5;entryDx=0;entryDy=0;" parent="1" source="g61Bc657mv9JkBtAd2AT-46" target="g61Bc657mv9JkBtAd2AT-52" edge="1">
          <mxGeometry relative="1" as="geometry" />
        </mxCell>
        <mxCell id="g61Bc657mv9JkBtAd2AT-65" style="edgeStyle=orthogonalEdgeStyle;rounded=0;orthogonalLoop=1;jettySize=auto;html=1;exitX=0;exitY=0.5;exitDx=0;exitDy=0;entryX=0;entryY=0.5;entryDx=0;entryDy=0;" parent="1" source="g61Bc657mv9JkBtAd2AT-46" target="g61Bc657mv9JkBtAd2AT-50" edge="1">
          <mxGeometry relative="1" as="geometry" />
        </mxCell>
        <mxCell id="g61Bc657mv9JkBtAd2AT-46" value="&lt;p style=&quot;margin: 0px ; margin-top: 6px ; text-align: center&quot;&gt;&lt;b&gt;WriterFactory&lt;/b&gt;&lt;/p&gt;&lt;br&gt;&lt;hr&gt;" style="align=left;overflow=fill;html=1;rotation=0;" parent="1" vertex="1">
          <mxGeometry x="812.5" y="376.5" width="140" height="60" as="geometry" />
        </mxCell>
        <mxCell id="g61Bc657mv9JkBtAd2AT-47" value="" style="shape=component;jettyWidth=8;jettyHeight=4;" parent="g61Bc657mv9JkBtAd2AT-46" vertex="1">
          <mxGeometry x="1" width="20" height="20" relative="1" as="geometry">
            <mxPoint x="-24" y="4" as="offset" />
          </mxGeometry>
        </mxCell>
        <mxCell id="g61Bc657mv9JkBtAd2AT-48" value="&lt;p style=&quot;margin: 0px ; margin-top: 6px ; text-align: center&quot;&gt;&lt;b&gt;DataTableDiffer&lt;/b&gt;&lt;br&gt;&lt;/p&gt;&lt;br&gt;&lt;hr&gt;" style="align=left;overflow=fill;html=1;rotation=0;" parent="1" vertex="1">
          <mxGeometry x="993.5" y="293.5" width="140" height="60" as="geometry" />
        </mxCell>
        <mxCell id="g61Bc657mv9JkBtAd2AT-49" value="" style="shape=component;jettyWidth=8;jettyHeight=4;" parent="g61Bc657mv9JkBtAd2AT-48" vertex="1">
          <mxGeometry x="1" width="20" height="20" relative="1" as="geometry">
            <mxPoint x="-24" y="4" as="offset" />
          </mxGeometry>
        </mxCell>
        <mxCell id="g61Bc657mv9JkBtAd2AT-50" value="&lt;p style=&quot;margin: 0px ; margin-top: 6px ; text-align: center&quot;&gt;&lt;b&gt;VelocityWriter&lt;/b&gt;&lt;br&gt;&lt;/p&gt;&lt;br&gt;&lt;hr&gt;" style="align=left;overflow=fill;html=1;rotation=0;" parent="1" vertex="1">
          <mxGeometry x="812.5" y="453.5" width="140" height="60" as="geometry" />
        </mxCell>
        <mxCell id="g61Bc657mv9JkBtAd2AT-51" value="" style="shape=component;jettyWidth=8;jettyHeight=4;" parent="g61Bc657mv9JkBtAd2AT-50" vertex="1">
          <mxGeometry x="1" width="20" height="20" relative="1" as="geometry">
            <mxPoint x="-24" y="4" as="offset" />
          </mxGeometry>
        </mxCell>
        <mxCell id="g61Bc657mv9JkBtAd2AT-52" value="&lt;p style=&quot;margin: 0px ; margin-top: 6px ; text-align: center&quot;&gt;&lt;b&gt;XlsWriter&lt;/b&gt;&lt;br&gt;&lt;/p&gt;&lt;br&gt;&lt;hr&gt;" style="align=left;overflow=fill;html=1;rotation=0;" parent="1" vertex="1">
          <mxGeometry x="812.5" y="530.5" width="140" height="60" as="geometry" />
        </mxCell>
        <mxCell id="g61Bc657mv9JkBtAd2AT-53" value="" style="shape=component;jettyWidth=8;jettyHeight=4;" parent="g61Bc657mv9JkBtAd2AT-52" vertex="1">
          <mxGeometry x="1" width="20" height="20" relative="1" as="geometry">
            <mxPoint x="-24" y="4" as="offset" />
          </mxGeometry>
        </mxCell>
        <mxCell id="g61Bc657mv9JkBtAd2AT-66" style="edgeStyle=orthogonalEdgeStyle;rounded=0;orthogonalLoop=1;jettySize=auto;html=1;entryX=0.5;entryY=0;entryDx=0;entryDy=0;" parent="1" source="g61Bc657mv9JkBtAd2AT-54" target="g61Bc657mv9JkBtAd2AT-46" edge="1">
          <mxGeometry relative="1" as="geometry" />
        </mxCell>
        <mxCell id="g61Bc657mv9JkBtAd2AT-67" style="edgeStyle=orthogonalEdgeStyle;rounded=0;orthogonalLoop=1;jettySize=auto;html=1;exitX=1;exitY=0.5;exitDx=0;exitDy=0;entryX=0;entryY=0.5;entryDx=0;entryDy=0;" parent="1" source="g61Bc657mv9JkBtAd2AT-54" target="g61Bc657mv9JkBtAd2AT-44" edge="1">
          <mxGeometry relative="1" as="geometry">
            <Array as="points">
              <mxPoint x="962.5" y="323.5" />
              <mxPoint x="962.5" y="406.5" />
            </Array>
          </mxGeometry>
        </mxCell>
        <mxCell id="g61Bc657mv9JkBtAd2AT-68" style="edgeStyle=orthogonalEdgeStyle;rounded=0;orthogonalLoop=1;jettySize=auto;html=1;exitX=1;exitY=0.5;exitDx=0;exitDy=0;entryX=0;entryY=0.5;entryDx=0;entryDy=0;" parent="1" source="g61Bc657mv9JkBtAd2AT-54" target="g61Bc657mv9JkBtAd2AT-48" edge="1">
          <mxGeometry relative="1" as="geometry">
            <Array as="points">
              <mxPoint x="972.5" y="323.5" />
              <mxPoint x="972.5" y="323.5" />
            </Array>
          </mxGeometry>
        </mxCell>
        <mxCell id="g61Bc657mv9JkBtAd2AT-105" style="edgeStyle=orthogonalEdgeStyle;rounded=0;orthogonalLoop=1;jettySize=auto;html=1;exitX=0;exitY=0.5;exitDx=0;exitDy=0;entryX=1;entryY=0.5;entryDx=0;entryDy=0;" parent="1" source="g61Bc657mv9JkBtAd2AT-54" target="g61Bc657mv9JkBtAd2AT-3" edge="1">
          <mxGeometry relative="1" as="geometry">
            <Array as="points">
              <mxPoint x="760" y="324" />
              <mxPoint x="760" y="220" />
              <mxPoint x="680" y="220" />
              <mxPoint x="680" y="119" />
            </Array>
          </mxGeometry>
        </mxCell>
        <mxCell id="g61Bc657mv9JkBtAd2AT-54" value="&lt;p style=&quot;margin: 0px ; margin-top: 6px ; text-align: center&quot;&gt;&lt;b&gt;WriterFacade&lt;/b&gt;&lt;/p&gt;&lt;br&gt;&lt;hr&gt;" style="align=left;overflow=fill;html=1;rotation=0;" parent="1" vertex="1">
          <mxGeometry x="812.5" y="293.5" width="140" height="60" as="geometry" />
        </mxCell>
        <mxCell id="g61Bc657mv9JkBtAd2AT-55" value="" style="shape=component;jettyWidth=8;jettyHeight=4;" parent="g61Bc657mv9JkBtAd2AT-54" vertex="1">
          <mxGeometry x="1" width="20" height="20" relative="1" as="geometry">
            <mxPoint x="-24" y="4" as="offset" />
          </mxGeometry>
        </mxCell>
        <mxCell id="g61Bc657mv9JkBtAd2AT-110" value="writer" style="shape=umlFrame;whiteSpace=wrap;html=1;fillColor=#D5E8D4;opacity=60;strokeWidth=3;" parent="1" vertex="1">
          <mxGeometry x="780" y="250" width="370" height="440" as="geometry" />
        </mxCell>
        <mxCell id="E12I5hy7IiAWHUOPnKXT-1" value="&lt;p style=&quot;margin: 0px ; margin-top: 6px ; text-align: center&quot;&gt;&lt;b&gt;ConfigReader&lt;/b&gt;&lt;/p&gt;&lt;hr&gt;" style="align=left;overflow=fill;html=1;rotation=0;" parent="1" vertex="1">
          <mxGeometry x="282.5" y="171.5" width="140" height="60" as="geometry" />
        </mxCell>
        <mxCell id="E12I5hy7IiAWHUOPnKXT-2" value="" style="shape=component;jettyWidth=8;jettyHeight=4;" parent="E12I5hy7IiAWHUOPnKXT-1" vertex="1">
          <mxGeometry x="1" width="20" height="20" relative="1" as="geometry">
            <mxPoint x="-24" y="4" as="offset" />
          </mxGeometry>
        </mxCell>
        <mxCell id="Hlagz_mXp8ZFHOp5LDmd-1" value="&lt;b&gt;&lt;br&gt;Deprecation&lt;br&gt;Checker&lt;br&gt;&lt;/b&gt;&lt;p style=&quot;margin: 6px 0px 0px&quot;&gt;&lt;/p&gt;" style="align=center;overflow=fill;html=1;rotation=0;verticalAlign=middle;" parent="1" vertex="1">
          <mxGeometry x="1013" y="100" width="137" height="60" as="geometry" />
        </mxCell>
        <mxCell id="Hlagz_mXp8ZFHOp5LDmd-2" value="" style="shape=component;jettyWidth=8;jettyHeight=4;" parent="Hlagz_mXp8ZFHOp5LDmd-1" vertex="1">
          <mxGeometry x="1" width="20" height="20" relative="1" as="geometry">
            <mxPoint x="-24" y="4" as="offset" />
          </mxGeometry>
        </mxCell>
        <mxCell id="Q7E9GpuZRZKX_aVkgj14-1" value="&lt;div style=&quot;text-align: center&quot;&gt;&lt;span&gt;&lt;b&gt;Classpath&lt;/b&gt;&lt;/span&gt;&lt;/div&gt;&lt;div style=&quot;text-align: center&quot;&gt;&lt;span&gt;&lt;b&gt;GuessedLicense&lt;/b&gt;&lt;/span&gt;&lt;/div&gt;&lt;div style=&quot;text-align: center&quot;&gt;&lt;span&gt;&lt;b&gt;UrlContentProvider&lt;/b&gt;&lt;/span&gt;&lt;/div&gt;&lt;p style=&quot;margin: 0px ; margin-top: 6px ; text-align: center&quot;&gt;&lt;/p&gt;" style="align=left;overflow=fill;html=1;rotation=0;" parent="1" vertex="1">
          <mxGeometry x="606" y="870" width="140" height="60" as="geometry" />
        </mxCell>
        <mxCell id="Q7E9GpuZRZKX_aVkgj14-2" value="" style="shape=component;jettyWidth=8;jettyHeight=4;" parent="Q7E9GpuZRZKX_aVkgj14-1" vertex="1">
          <mxGeometry x="1" width="20" height="20" relative="1" as="geometry">
            <mxPoint x="-24" y="4" as="offset" />
          </mxGeometry>
        </mxCell>
        <mxCell id="Q7E9GpuZRZKX_aVkgj14-3" value="&lt;div style=&quot;text-align: center&quot;&gt;&lt;b&gt;&lt;br&gt;&lt;/b&gt;&lt;/div&gt;&lt;div style=&quot;text-align: center&quot;&gt;&lt;b&gt;Strategy&lt;/b&gt;&lt;/div&gt;&lt;div style=&quot;text-align: center&quot;&gt;&lt;b&gt;LicenseUrlGuesser&lt;/b&gt;&lt;br&gt;&lt;/div&gt;&lt;p style=&quot;margin: 0px ; margin-top: 6px ; text-align: center&quot;&gt;&lt;/p&gt;" style="align=left;overflow=fill;html=1;rotation=0;" parent="1" vertex="1">
          <mxGeometry x="948" y="870" width="140" height="60" as="geometry" />
        </mxCell>
        <mxCell id="Q7E9GpuZRZKX_aVkgj14-4" value="" style="shape=component;jettyWidth=8;jettyHeight=4;" parent="Q7E9GpuZRZKX_aVkgj14-3" vertex="1">
          <mxGeometry x="1" width="20" height="20" relative="1" as="geometry">
            <mxPoint x="-24" y="4" as="offset" />
          </mxGeometry>
        </mxCell>
        <mxCell id="Q7E9GpuZRZKX_aVkgj14-5" value="&lt;div style=&quot;text-align: center&quot;&gt;&lt;b&gt;FilesystemCaching&lt;/b&gt;&lt;br&gt;&lt;/div&gt;&lt;div style=&quot;text-align: center&quot;&gt;&lt;span&gt;&lt;b&gt;GuessedLicenseUrl&lt;/b&gt;&lt;/span&gt;&lt;/div&gt;&lt;div style=&quot;text-align: center&quot;&gt;&lt;span&gt;&lt;b&gt;ContentProvider&lt;/b&gt;&lt;/span&gt;&lt;/div&gt;&lt;p style=&quot;margin: 0px ; margin-top: 6px ; text-align: center&quot;&gt;&lt;/p&gt;" style="align=left;overflow=fill;html=1;rotation=0;" parent="1" vertex="1">
          <mxGeometry x="777" y="870" width="140" height="60" as="geometry" />
        </mxCell>
        <mxCell id="Q7E9GpuZRZKX_aVkgj14-6" value="" style="shape=component;jettyWidth=8;jettyHeight=4;" parent="Q7E9GpuZRZKX_aVkgj14-5" vertex="1">
          <mxGeometry x="1" width="20" height="20" relative="1" as="geometry">
            <mxPoint x="-24" y="4" as="offset" />
          </mxGeometry>
        </mxCell>
        <mxCell id="Q7E9GpuZRZKX_aVkgj14-7" value="&lt;div style=&quot;text-align: center&quot;&gt;&lt;span&gt;&lt;b&gt;InMemoryMap&lt;/b&gt;&lt;/span&gt;&lt;/div&gt;&lt;div style=&quot;text-align: center&quot;&gt;&lt;span&gt;&lt;b&gt;GuessedLicense&lt;/b&gt;&lt;/span&gt;&lt;/div&gt;&lt;div style=&quot;text-align: center&quot;&gt;&lt;span&gt;&lt;b&gt;UrlContentProvider&lt;/b&gt;&lt;/span&gt;&lt;/div&gt;&lt;p style=&quot;margin: 0px ; margin-top: 6px ; text-align: center&quot;&gt;&lt;/p&gt;" style="align=left;overflow=fill;html=1;rotation=0;" parent="1" vertex="1">
          <mxGeometry x="436" y="870" width="140" height="60" as="geometry" />
        </mxCell>
        <mxCell id="Q7E9GpuZRZKX_aVkgj14-8" value="" style="shape=component;jettyWidth=8;jettyHeight=4;" parent="Q7E9GpuZRZKX_aVkgj14-7" vertex="1">
          <mxGeometry x="1" width="20" height="20" relative="1" as="geometry">
            <mxPoint x="-24" y="4" as="offset" />
          </mxGeometry>
        </mxCell>
        <mxCell id="Q7E9GpuZRZKX_aVkgj14-10" value="" style="endArrow=classic;html=1;exitX=0.846;exitY=1.025;exitDx=0;exitDy=0;exitPerimeter=0;entryX=0;entryY=0.5;entryDx=0;entryDy=0;" parent="1" source="g61Bc657mv9JkBtAd2AT-24" target="Q7E9GpuZRZKX_aVkgj14-7" edge="1">
          <mxGeometry width="50" height="50" relative="1" as="geometry">
            <mxPoint x="560" y="670" as="sourcePoint" />
            <mxPoint x="610" y="620" as="targetPoint" />
            <Array as="points">
              <mxPoint x="311" y="900" />
            </Array>
          </mxGeometry>
        </mxCell>
        <mxCell id="Q7E9GpuZRZKX_aVkgj14-11" value="" style="endArrow=classic;html=1;exitX=1;exitY=0.5;exitDx=0;exitDy=0;entryX=0;entryY=0.5;entryDx=0;entryDy=0;" parent="1" source="Q7E9GpuZRZKX_aVkgj14-7" target="Q7E9GpuZRZKX_aVkgj14-1" edge="1">
          <mxGeometry width="50" height="50" relative="1" as="geometry">
            <mxPoint x="622.5" y="670" as="sourcePoint" />
            <mxPoint x="672.5" y="620" as="targetPoint" />
          </mxGeometry>
        </mxCell>
        <mxCell id="Q7E9GpuZRZKX_aVkgj14-12" value="" style="endArrow=classic;html=1;entryX=0;entryY=0.5;entryDx=0;entryDy=0;exitX=1;exitY=0.5;exitDx=0;exitDy=0;" parent="1" source="Q7E9GpuZRZKX_aVkgj14-5" target="Q7E9GpuZRZKX_aVkgj14-3" edge="1">
          <mxGeometry width="50" height="50" relative="1" as="geometry">
            <mxPoint x="622.5" y="670" as="sourcePoint" />
            <mxPoint x="672.5" y="620" as="targetPoint" />
          </mxGeometry>
        </mxCell>
        <mxCell id="Q7E9GpuZRZKX_aVkgj14-13" value="" style="endArrow=classic;html=1;exitX=1;exitY=0.5;exitDx=0;exitDy=0;" parent="1" source="Q7E9GpuZRZKX_aVkgj14-3" edge="1">
          <mxGeometry width="50" height="50" relative="1" as="geometry">
            <mxPoint x="622.5" y="670" as="sourcePoint" />
            <mxPoint x="502.5" y="810" as="targetPoint" />
            <Array as="points">
              <mxPoint x="1132.5" y="900" />
              <mxPoint x="1132.5" y="840" />
              <mxPoint x="502.5" y="840" />
            </Array>
          </mxGeometry>
        </mxCell>
        <mxCell id="Qooh3g9yuUudVNPx7A0L-1" value="" style="endArrow=classic;html=1;exitX=1;exitY=0.5;exitDx=0;exitDy=0;entryX=0;entryY=0.5;entryDx=0;entryDy=0;" parent="1" source="Q7E9GpuZRZKX_aVkgj14-1" target="Q7E9GpuZRZKX_aVkgj14-5" edge="1">
          <mxGeometry width="50" height="50" relative="1" as="geometry">
            <mxPoint x="560" y="740" as="sourcePoint" />
            <mxPoint x="780" y="900" as="targetPoint" />
          </mxGeometry>
        </mxCell>
        <mxCell id="_Cff3tx-APnAVFWDFcA1-1" value="&lt;b&gt;&lt;br&gt;AllKinds&lt;br&gt;PackageURLHandler&lt;br&gt;&lt;br&gt;&lt;/b&gt;&lt;p style=&quot;margin: 6px 0px 0px&quot;&gt;&lt;/p&gt;" style="align=center;overflow=fill;html=1;rotation=0;verticalAlign=middle;" parent="1" vertex="1">
          <mxGeometry x="1013" y="28.5" width="137" height="60" as="geometry" />
        </mxCell>
        <mxCell id="_Cff3tx-APnAVFWDFcA1-2" value="" style="shape=component;jettyWidth=8;jettyHeight=4;" parent="_Cff3tx-APnAVFWDFcA1-1" vertex="1">
          <mxGeometry x="1" width="20" height="20" relative="1" as="geometry">
            <mxPoint x="-24" y="4" as="offset" />
          </mxGeometry>
        </mxCell>
        <mxCell id="xxulgJC3yuVqRqkbYUfU-1" value="&lt;div&gt;&lt;b&gt;&lt;br&gt;&lt;/b&gt;&lt;/div&gt;&lt;b&gt;ReportingGroup&lt;/b&gt;&lt;div&gt;&lt;b&gt;Handler&lt;/b&gt;&lt;p style=&quot;margin: 6px 0px 0px&quot;&gt;&lt;/p&gt;&lt;/div&gt;" style="align=center;overflow=fill;html=1;rotation=0;verticalAlign=middle;" vertex="1" parent="1">
          <mxGeometry x="856.5" y="28.5" width="137" height="60" as="geometry" />
        </mxCell>
        <mxCell id="xxulgJC3yuVqRqkbYUfU-2" value="" style="shape=component;jettyWidth=8;jettyHeight=4;" vertex="1" parent="xxulgJC3yuVqRqkbYUfU-1">
          <mxGeometry x="1" width="20" height="20" relative="1" as="geometry">
            <mxPoint x="-24" y="4" as="offset" />
          </mxGeometry>
        </mxCell>
      </root>
    </mxGraphModel>
  </diagram>
</mxfile>
